<svg width="32" height="32" viewBox="0 0 32 32" fill="none" xmlns="http://www.w3.org/2000/svg">
<path fill-rule="evenodd" clip-rule="evenodd" d="M10.3095 7.07243C12.5597 5.70272 14.6876 4.45531 15.0178 4.2841C16.094 3.72154 16.1185 3.73377 21.2304 6.80338C25.523 9.39603 25.7798 9.56725 26.0489 10.0931L26.3424 10.6434L26.3057 16.1467L26.3056 16.1564C26.269 21.6256 26.2688 21.6503 25.9877 22.0903C25.7676 22.4572 24.887 23.0319 21.157 25.2699C17.6313 27.3916 16.5731 28.1212 15.6429 27.9839C15.0986 27.9036 14.5981 27.5264 13.6726 26.9576C12.7309 26.3828 11.9482 25.8203 11.9238 25.7102C11.8993 25.5634 12.1439 25.38 12.7921 25.062L13.697 24.6095L14.8466 25.2944C15.8494 25.8936 16.0329 25.9548 16.2408 25.8203C16.3308 25.763 17.1939 25.2506 18.3967 24.5366C18.9905 24.1841 19.6671 23.7825 20.3744 23.3621L24.2511 21.0508V16.0856V11.1326L20.142 8.62557C17.8918 7.24364 16.0084 6.13075 15.9595 6.14298C15.9106 6.15521 14.0395 7.28033 11.8137 8.65003L7.74127 11.1326V16.0856V21.0385L8.92753 21.7601C10.285 22.5672 10.9699 22.7507 11.3123 22.3593C11.508 22.1514 11.5324 21.6378 11.5569 16.9661C11.5936 12.5268 11.618 11.7808 11.777 11.683C12.0461 11.5117 13.2935 11.5362 13.4647 11.7074C13.5747 11.8175 13.6114 13.2116 13.6114 17.2474V22.6406L13.2935 23.2765C12.8654 24.1326 12.1928 24.5362 11.0677 24.6095C10.0282 24.6829 9.4534 24.475 7.63121 23.3621C6.93749 22.9393 6.49591 22.7287 6.21351 22.3867C5.65455 21.7097 5.71921 20.5178 5.68671 16.1467L5.65002 10.6434L5.9313 10.0931C6.20035 9.56725 6.42048 9.40826 10.3095 7.07243ZM14.5409 14.1289C14.5409 12.7225 15.3236 11.8053 16.9012 11.3528C17.6716 11.1326 19.9586 11.2305 20.7535 11.4995C21.9031 11.9153 22.7591 13.0894 22.6368 14.1044C22.6001 14.4224 22.5634 14.4346 21.7808 14.4713L20.9614 14.508L20.7046 14.0066C20.3499 13.3217 19.9096 13.1505 18.4788 13.1505C17.5493 13.1505 17.2681 13.1994 16.9379 13.3951C16.5954 13.603 16.5343 13.7008 16.571 14.0433C16.6199 14.5691 16.9134 14.6914 19.0291 15.0461C21.6218 15.4863 22.3189 15.7921 22.7958 16.7215C23.0037 17.1373 23.0404 17.3941 23.0037 18.1768C22.967 18.9962 22.9181 19.1919 22.6001 19.6566C21.8052 20.794 20.5823 21.2709 18.5644 21.2464C15.9717 21.222 14.2596 19.9746 14.3697 18.2013L14.4064 17.6143H15.2502H16.0818L16.2897 18.1646C16.5588 18.8984 17.0602 19.2286 18.0997 19.3386C19.6528 19.4976 20.8146 19.0941 21.0103 18.3236C21.1815 17.6143 20.619 17.3085 18.6867 17.064C15.5315 16.6604 14.5409 15.9633 14.5409 14.1289Z" fill="white"/>
</svg>
